# xmcd CD database file
#
# Track frame offsets:
#	150
#	23372
#	43507
#
# Disc length: 889 seconds
#
# Revision: 0
# Processed by: cddbd v1.5.1PL2 Copyright (c) Steve Scherf et al.
# Submitted via: CDex 1.51
#
DISCID=14037703
DTITLE=YOYOYO - 花も嵐も乗り越えて
DYEAR=1996
DGENRE=JPop
TTITLE0=花も嵐も乗り越えて
TTITLE1=愛されましょう
TTITLE2=花も嵐も乗り越えて(オリジナル・カラオケ)
EXTD=YEAR: 1996
EXTT0=
EXTT1=
EXTT2=
PLAYORDER=
